<svg xmlns="http://www.w3.org/2000/svg" viewBox="0 0 200 200" width="180" height="180">
  <!-- Background circle -->
  <circle cx="100" cy="100" r="95" fill="#1a211a" stroke="#8fcf3c" stroke-width="2"/>
  
  <!-- Film reel left -->
  <circle cx="70" cy="100" r="35" fill="none" stroke="#8fcf3c" stroke-width="3"/>
  <circle cx="70" cy="100" r="28" fill="none" stroke="#8fcf3c" stroke-width="2"/>
  <circle cx="70" cy="100" r="8" fill="#8fcf3c"/>
  <rect x="62" y="92" width="5" height="5" fill="#8fcf3c"/>
  <rect x="73" y="92" width="5" height="5" fill="#8fcf3c"/>
  <rect x="62" y="103" width="5" height="5" fill="#8fcf3c"/>
  <rect x="73" y="103" width="5" height="5" fill="#8fcf3c"/>
  
  <!-- Film reel right -->
  <circle cx="130" cy="100" r="35" fill="none" stroke="#8fcf3c" stroke-width="3"/>
  <circle cx="130" cy="100" r="28" fill="none" stroke="#8fcf3c" stroke-width="2"/>
  <circle cx="130" cy="100" r="8" fill="#8fcf3c"/>
  <rect x="122" y="92" width="5" height="5" fill="#8fcf3c"/>
  <rect x="133" y="92" width="5" height="5" fill="#8fcf3c"/>
  <rect x="122" y="103" width="5" height="5" fill="#8fcf3c"/>
  <rect x="133" y="103" width="5" height="5" fill="#8fcf3c"/>
  
  <!-- Film strip in middle -->
  <rect x="85" y="80" width="30" height="40" fill="#8fcf3c" opacity="0.2" stroke="#8fcf3c" stroke-width="1.5" rx="2"/>
  <rect x="87" y="82" width="6" height="6" fill="#8fcf3c"/>
  <rect x="97" y="82" width="6" height="6" fill="#8fcf3c"/>
  <rect x="107" y="82" width="6" height="6" fill="#8fcf3c"/>
  <rect x="87" y="92" width="6" height="6" fill="#8fcf3c"/>
  <rect x="97" y="92" width="6" height="6" fill="#8fcf3c"/>
  <rect x="107" y="92" width="6" height="6" fill="#8fcf3c"/>
  <rect x="87" y="102" width="6" height="6" fill="#8fcf3c"/>
  <rect x="97" y="102" width="6" height="6" fill="#8fcf3c"/>
  <rect x="107" y="102" width="6" height="6" fill="#8fcf3c"/>
  <rect x="87" y="112" width="6" height="6" fill="#8fcf3c"/>
  <rect x="97" y="112" width="6" height="6" fill="#8fcf3c"/>
  <rect x="107" y="112" width="6" height="6" fill="#8fcf3c"/>
  
  <!-- Star accent top -->
  <g transform="translate(100, 35)">
    <polygon points="0,-8 2.4,-2.4 8,-0.8 3.2,3.2 4.8,9 0,5.2 -4.8,9 -3.2,3.2 -8,-0.8 -2.4,-2.4" fill="#8fcf3c"/>
  </g>
</svg>
